<svg width="26" height="28" viewBox="0 0 26 28" fill="none" xmlns="http://www.w3.org/2000/svg">
<path d="M25.25 19.6V1.4C25.25 0.525 24.725 0 23.85 0H6C3.025 0 0.75 2.275 0.75 5.25V22.75C0.75 25.725 3.025 28 6 28H23.85C24.55 28 25.25 27.475 25.25 26.6V25.725C25.25 25.375 25.075 25.025 24.725 24.675C24.55 23.8 24.55 21.35 24.725 20.65C25.075 20.475 25.25 20.125 25.25 19.6ZM17.2153 7.97453C17.2481 7.90836 17.3116 7.875 17.375 7.875C17.4384 7.875 17.5019 7.90836 17.5347 7.97453L18.1461 9.2132L19.5133 9.41172C19.6593 9.43305 19.7178 9.61242 19.6123 9.71578L18.623 10.6799L18.8565 12.0411C18.8762 12.1565 18.7848 12.25 18.6809 12.25C18.6536 12.25 18.6252 12.2434 18.5978 12.2292L17.375 11.5866L16.1522 12.2292C16.1248 12.2434 16.0964 12.25 16.0691 12.25C15.9652 12.25 15.8738 12.1565 15.8935 12.0411L16.127 10.6799L15.1377 9.71578C15.0316 9.61242 15.0902 9.43305 15.2367 9.41172L16.6034 9.2132L17.2153 7.97453ZM14.0495 4.20055C14.797 4.20055 15.5402 4.33672 16.2577 4.60578C16.312 4.60582 16.3655 4.61776 16.4146 4.64077C16.4638 4.66378 16.5072 4.69729 16.542 4.73893C16.5767 4.78057 16.6019 4.82934 16.6157 4.88178C16.6296 4.93422 16.6317 4.98906 16.622 5.04242C16.6123 5.09578 16.5911 5.14637 16.5597 5.19061C16.5283 5.23485 16.4876 5.27166 16.4405 5.29845C16.3933 5.32524 16.3408 5.34135 16.2868 5.34564C16.2327 5.34993 16.1784 5.34229 16.1276 5.32328C16.0909 5.32328 15.9586 5.3118 15.9017 5.3118C13.041 5.3118 10.7141 7.63875 10.7141 10.4995C10.7141 13.3596 13.041 15.6871 15.9017 15.6871C15.958 15.6871 16.092 15.6756 16.1276 15.6756C16.3425 15.6756 16.4995 15.8473 16.4995 16.0464C16.4995 16.2094 16.3934 16.3477 16.2468 16.3975C15.532 16.6638 14.7927 16.7989 14.0489 16.7989C10.5757 16.7995 7.75 13.9732 7.75 10.5C7.75 7.02625 10.5757 4.20055 14.0495 4.20055ZM21.575 24.5H6C4.95 24.5 4.25 23.8 4.25 22.75C4.25 21.7 5.125 21 6 21H21.575V24.5Z" fill="#E2BE7F"/>
</svg>
