<svg width="430" height="539" viewBox="0 0 430 539" fill="none" xmlns="http://www.w3.org/2000/svg">
<path d="M265.365 125.63C273.124 133.664 285.919 133.897 293.943 126.148C301.966 118.399 302.181 105.604 294.422 97.5695C286.663 89.5346 273.868 89.3025 265.844 97.0511C257.82 104.8 257.606 117.595 265.365 125.63Z" fill="url(#paint0_radial_62_9617)"/>
<path d="M231.578 116.083C239.338 124.118 252.132 124.35 260.156 116.602C268.18 108.853 268.395 96.058 260.635 88.0231C252.876 79.9882 240.082 79.7561 232.058 87.5047C224.034 95.2533 223.819 108.048 231.578 116.083Z" fill="url(#paint1_radial_62_9617)"/>
<path d="M195.886 113.649C203.645 121.684 216.44 121.916 224.464 114.168C232.488 106.419 232.702 93.6239 224.943 85.589C217.184 77.5541 204.389 77.322 196.365 85.0706C188.341 92.8192 188.127 105.614 195.886 113.649Z" fill="url(#paint2_radial_62_9617)"/>
<path d="M160.074 118.36C167.833 126.394 180.628 126.627 188.652 118.878C196.676 111.129 196.89 98.3343 189.131 90.2994C181.372 82.2645 168.577 82.0325 160.553 89.781C152.529 97.5296 152.315 110.325 160.074 118.36Z" fill="url(#paint3_radial_62_9617)"/>
<path d="M127.714 130.279C135.473 138.314 148.065 138.743 155.838 131.236C163.611 123.73 163.622 111.131 155.863 103.096C148.104 95.0612 135.513 94.6328 127.739 102.139C119.966 109.646 119.955 122.244 127.714 130.279Z" fill="url(#paint4_radial_62_9617)"/>
<path d="M97.0207 149.376C104.78 157.411 117.575 157.643 125.598 149.895C133.622 142.146 133.837 129.351 126.078 121.316C118.319 113.281 105.524 113.049 97.4999 120.798C89.476 128.546 89.2614 141.342 97.0207 149.376Z" fill="url(#paint5_radial_62_9617)"/>
<path d="M71.5957 173.929C79.3549 181.964 92.1496 182.196 100.174 174.447C108.197 166.699 108.412 153.904 100.653 145.869C92.8936 137.834 80.0989 137.602 72.075 145.35C64.0511 153.099 63.8365 165.894 71.5957 173.929Z" fill="url(#paint6_radial_62_9617)"/>
<path d="M51.9082 202.606C59.4249 210.389 71.8198 210.614 79.593 203.108C87.3661 195.601 87.574 183.206 80.0573 175.422C72.5405 167.639 60.1456 167.414 52.3725 174.92C44.5993 182.427 44.3915 194.822 51.9082 202.606Z" fill="url(#paint7_radial_62_9617)"/>
<path d="M38.3972 235.861C46.1564 243.896 58.9511 244.128 66.975 236.38C74.9989 228.631 75.2135 215.836 67.4543 207.801C59.6951 199.766 46.9004 199.534 38.8765 207.283C30.8526 215.031 30.638 227.826 38.3972 235.861Z" fill="url(#paint8_radial_62_9617)"/>
<path d="M31.5617 270.578C39.3209 278.613 52.1156 278.845 60.1395 271.096C68.1634 263.348 68.378 250.553 60.6188 242.518C52.8596 234.483 40.0649 234.251 32.041 241.999C24.0171 249.748 23.8025 262.543 31.5617 270.578Z" fill="url(#paint9_radial_62_9617)"/>
<path d="M32.7487 306.333C40.5079 314.368 53.3026 314.6 61.3265 306.852C69.3504 299.103 69.565 286.308 61.8058 278.273C54.0466 270.238 41.2518 270.006 33.2279 277.755C25.204 285.504 24.9895 298.299 32.7487 306.333Z" fill="url(#paint10_radial_62_9617)"/>
<path d="M41.5492 340.887C49.0659 348.671 61.6641 348.699 69.688 340.951C77.7119 333.202 78.123 320.611 70.6063 312.827C63.0896 305.043 50.4914 305.015 42.4675 312.763C34.4436 320.512 34.0325 333.103 41.5492 340.887Z" fill="url(#paint11_radial_62_9617)"/>
<path d="M56.646 372.875C64.4052 380.91 77.1999 381.142 85.2238 373.393C93.2477 365.645 93.4623 352.85 85.7031 344.815C77.9439 336.78 65.1492 336.548 57.1253 344.296C49.1014 352.045 48.8868 364.84 56.646 372.875Z" fill="url(#paint12_radial_62_9617)"/>
<path d="M78.5081 400.965C86.2673 409 99.0621 409.232 107.086 401.484C115.11 393.735 115.324 380.94 107.565 372.905C99.806 364.87 87.0113 364.638 78.9874 372.387C70.9635 380.135 70.7489 392.93 78.5081 400.965Z" fill="url(#paint13_radial_62_9617)"/>
<path d="M105.818 423.794C113.578 431.829 126.372 432.061 134.396 424.313C142.42 416.564 142.635 403.769 134.876 395.734C127.116 387.699 114.322 387.467 106.298 395.216C98.2739 402.964 98.0593 415.759 105.818 423.794Z" fill="url(#paint14_radial_62_9617)"/>
<path d="M137.26 439.998C144.777 447.782 157.172 448.007 164.945 440.501C172.718 432.994 172.926 420.599 165.409 412.815C157.892 405.031 145.497 404.807 137.724 412.313C129.951 419.82 129.743 432.215 137.26 439.998Z" fill="url(#paint15_radial_62_9617)"/>
<path d="M171.485 450C179.245 458.034 191.836 458.463 199.609 450.956C207.382 443.45 207.394 430.851 199.634 422.816C191.875 414.781 179.284 414.353 171.511 421.859C163.737 429.366 163.726 441.965 171.485 450Z" fill="url(#paint16_radial_62_9617)"/>
<path d="M206.27 453.31C214.029 461.345 226.824 461.577 234.847 453.829C242.871 446.08 243.086 433.285 235.327 425.25C227.568 417.215 214.773 416.983 206.749 424.732C198.725 432.481 198.51 445.276 206.27 453.31Z" fill="url(#paint17_radial_62_9617)"/>
<path d="M241.643 448.145C249.16 455.929 261.758 455.958 269.782 448.209C277.806 440.461 278.217 427.869 270.7 420.085C263.183 412.301 250.585 412.273 242.561 420.022C234.537 427.77 234.126 440.362 241.643 448.145Z" fill="url(#paint18_radial_62_9617)"/>
<path d="M275.35 435.803C283.109 443.838 295.7 444.267 303.473 436.76C311.247 429.254 311.258 416.655 303.499 408.62C295.739 400.585 283.148 400.157 275.375 407.663C267.602 415.17 267.59 427.768 275.35 435.803Z" fill="url(#paint19_radial_62_9617)"/>
<path d="M305.135 417.583C312.894 425.618 325.689 425.85 333.713 418.102C341.737 410.353 341.951 397.558 334.192 389.523C326.433 381.488 313.638 381.256 305.614 389.005C297.59 396.753 297.376 409.548 305.135 417.583Z" fill="url(#paint20_radial_62_9617)"/>
<path d="M330.56 393.03C338.319 401.065 351.114 401.297 359.138 393.549C367.162 385.8 367.376 373.005 359.617 364.97C351.858 356.935 339.063 356.703 331.039 364.452C323.015 372.201 322.801 384.996 330.56 393.03Z" fill="url(#paint21_radial_62_9617)"/>
<path d="M350.716 363.022C358.476 371.057 371.27 371.289 379.294 363.541C387.318 355.792 387.533 342.997 379.774 334.962C372.014 326.927 359.22 326.695 351.196 334.444C343.172 342.192 342.957 354.988 350.716 363.022Z" fill="url(#paint22_radial_62_9617)"/>
<path d="M364.667 330.221C372.426 338.256 385.017 338.685 392.79 331.178C400.563 323.672 400.575 311.073 392.816 303.038C385.056 295.003 372.465 294.575 364.692 302.081C356.919 309.588 356.907 322.187 364.667 330.221Z" fill="url(#paint23_radial_62_9617)"/>
<path d="M370.155 295.927C377.672 303.711 390.27 303.739 398.294 295.991C406.318 288.242 406.729 275.651 399.212 267.867C391.695 260.083 379.097 260.054 371.073 267.803C363.049 275.552 362.638 288.143 370.155 295.927Z" fill="url(#paint24_radial_62_9617)"/>
<path d="M369.407 260.626C377.166 268.661 389.961 268.893 397.985 261.144C406.009 253.396 406.223 240.601 398.464 232.566C390.705 224.531 377.91 224.299 369.886 232.047C361.862 239.796 361.648 252.591 369.407 260.626Z" fill="url(#paint25_radial_62_9617)"/>
<path d="M361.515 225.196C369.031 232.979 381.426 233.204 389.199 225.698C396.972 218.191 397.18 205.796 389.664 198.012C382.147 190.228 369.752 190.004 361.979 197.51C354.206 205.017 353.998 217.412 361.515 225.196Z" fill="url(#paint26_radial_62_9617)"/>
<path d="M345.51 194.085C353.269 202.12 366.064 202.352 374.088 194.603C382.111 186.854 382.326 174.059 374.567 166.025C366.808 157.99 354.013 157.758 345.989 165.506C337.965 173.255 337.75 186.05 345.51 194.085Z" fill="url(#paint27_radial_62_9617)"/>
<path d="M323.648 165.994C331.407 174.029 344.201 174.261 352.225 166.512C360.249 158.764 360.464 145.969 352.705 137.934C344.945 129.899 332.151 129.667 324.127 137.416C316.103 145.164 315.888 157.959 323.648 165.994Z" fill="url(#paint28_radial_62_9617)"/>
<path d="M296.337 143.165C304.096 151.2 316.891 151.432 324.915 143.683C332.939 135.935 333.154 123.14 325.394 115.105C317.635 107.07 304.84 106.838 296.816 114.586C288.793 122.335 288.578 135.13 296.337 143.165Z" fill="url(#paint29_radial_62_9617)"/>
<defs>
<radialGradient id="paint0_radial_62_9617" cx="0" cy="0" r="1" gradientUnits="userSpaceOnUse" gradientTransform="translate(279.893 111.6) rotate(136) scale(20.1971 20.2247)">
<stop stop-color="#FFCF7C"/>
<stop offset="0.44" stop-color="#DBAC5B"/>
<stop offset="0.795" stop-color="#B6893A"/>
<stop offset="1" stop-color="#77623D"/>
</radialGradient>
<radialGradient id="paint1_radial_62_9617" cx="0" cy="0" r="1" gradientUnits="userSpaceOnUse" gradientTransform="translate(246.107 102.053) rotate(136) scale(20.1971 20.2247)">
<stop stop-color="#FFCF7C"/>
<stop offset="0.44" stop-color="#DBAC5B"/>
<stop offset="0.795" stop-color="#B6893A"/>
<stop offset="1" stop-color="#77623D"/>
</radialGradient>
<radialGradient id="paint2_radial_62_9617" cx="0" cy="0" r="1" gradientUnits="userSpaceOnUse" gradientTransform="translate(210.415 99.619) rotate(136) scale(20.1971 20.2247)">
<stop stop-color="#FFCF7C"/>
<stop offset="0.44" stop-color="#DBAC5B"/>
<stop offset="0.795" stop-color="#B6893A"/>
<stop offset="1" stop-color="#77623D"/>
</radialGradient>
<radialGradient id="paint3_radial_62_9617" cx="0" cy="0" r="1" gradientUnits="userSpaceOnUse" gradientTransform="translate(174.602 104.329) rotate(136) scale(20.1971 20.2247)">
<stop stop-color="#FFCF7C"/>
<stop offset="0.44" stop-color="#DBAC5B"/>
<stop offset="0.795" stop-color="#B6893A"/>
<stop offset="1" stop-color="#77623D"/>
</radialGradient>
<radialGradient id="paint4_radial_62_9617" cx="0" cy="0" r="1" gradientUnits="userSpaceOnUse" gradientTransform="translate(141.789 116.688) rotate(136) scale(19.5659 20.2247)">
<stop stop-color="#FFCF7C"/>
<stop offset="0.44" stop-color="#DBAC5B"/>
<stop offset="0.795" stop-color="#B6893A"/>
<stop offset="1" stop-color="#77623D"/>
</radialGradient>
<radialGradient id="paint5_radial_62_9617" cx="0" cy="0" r="1" gradientUnits="userSpaceOnUse" gradientTransform="translate(111.549 135.346) rotate(136) scale(20.1971 20.2247)">
<stop stop-color="#FFCF7C"/>
<stop offset="0.44" stop-color="#DBAC5B"/>
<stop offset="0.795" stop-color="#B6893A"/>
<stop offset="1" stop-color="#77623D"/>
</radialGradient>
<radialGradient id="paint6_radial_62_9617" cx="0" cy="0" r="1" gradientUnits="userSpaceOnUse" gradientTransform="translate(86.1243 159.899) rotate(136) scale(20.1971 20.2247)">
<stop stop-color="#FFCF7C"/>
<stop offset="0.44" stop-color="#DBAC5B"/>
<stop offset="0.795" stop-color="#B6893A"/>
<stop offset="1" stop-color="#77623D"/>
</radialGradient>
<radialGradient id="paint7_radial_62_9617" cx="0" cy="0" r="1" gradientUnits="userSpaceOnUse" gradientTransform="translate(65.9827 189.014) rotate(136) scale(19.5659 19.5927)">
<stop stop-color="#FFCF7C"/>
<stop offset="0.44" stop-color="#DBAC5B"/>
<stop offset="0.795" stop-color="#B6893A"/>
<stop offset="1" stop-color="#77623D"/>
</radialGradient>
<radialGradient id="paint8_radial_62_9617" cx="0" cy="0" r="1" gradientUnits="userSpaceOnUse" gradientTransform="translate(52.9258 221.831) rotate(136) scale(20.1971 20.2247)">
<stop stop-color="#FFCF7C"/>
<stop offset="0.44" stop-color="#DBAC5B"/>
<stop offset="0.795" stop-color="#B6893A"/>
<stop offset="1" stop-color="#77623D"/>
</radialGradient>
<radialGradient id="paint9_radial_62_9617" cx="0" cy="0" r="1" gradientUnits="userSpaceOnUse" gradientTransform="translate(46.0903 256.548) rotate(136) scale(20.1971 20.2247)">
<stop stop-color="#FFCF7C"/>
<stop offset="0.44" stop-color="#DBAC5B"/>
<stop offset="0.795" stop-color="#B6893A"/>
<stop offset="1" stop-color="#77623D"/>
</radialGradient>
<radialGradient id="paint10_radial_62_9617" cx="0" cy="0" r="1" gradientUnits="userSpaceOnUse" gradientTransform="translate(47.2772 292.303) rotate(136) scale(20.1971 20.2247)">
<stop stop-color="#FFCF7C"/>
<stop offset="0.44" stop-color="#DBAC5B"/>
<stop offset="0.795" stop-color="#B6893A"/>
<stop offset="1" stop-color="#77623D"/>
</radialGradient>
<radialGradient id="paint11_radial_62_9617" cx="0" cy="0" r="1" gradientUnits="userSpaceOnUse" gradientTransform="translate(56.0778 326.857) rotate(136) scale(20.1971 19.5927)">
<stop stop-color="#FFCF7C"/>
<stop offset="0.44" stop-color="#DBAC5B"/>
<stop offset="0.795" stop-color="#B6893A"/>
<stop offset="1" stop-color="#77623D"/>
</radialGradient>
<radialGradient id="paint12_radial_62_9617" cx="0" cy="0" r="1" gradientUnits="userSpaceOnUse" gradientTransform="translate(71.1746 358.845) rotate(136) scale(20.1971 20.2247)">
<stop stop-color="#FFCF7C"/>
<stop offset="0.44" stop-color="#DBAC5B"/>
<stop offset="0.795" stop-color="#B6893A"/>
<stop offset="1" stop-color="#77623D"/>
</radialGradient>
<radialGradient id="paint13_radial_62_9617" cx="0" cy="0" r="1" gradientUnits="userSpaceOnUse" gradientTransform="translate(93.0367 386.935) rotate(136) scale(20.1971 20.2247)">
<stop stop-color="#FFCF7C"/>
<stop offset="0.44" stop-color="#DBAC5B"/>
<stop offset="0.795" stop-color="#B6893A"/>
<stop offset="1" stop-color="#77623D"/>
</radialGradient>
<radialGradient id="paint14_radial_62_9617" cx="0" cy="0" r="1" gradientUnits="userSpaceOnUse" gradientTransform="translate(120.347 409.764) rotate(136) scale(20.1971 20.2247)">
<stop stop-color="#FFCF7C"/>
<stop offset="0.44" stop-color="#DBAC5B"/>
<stop offset="0.795" stop-color="#B6893A"/>
<stop offset="1" stop-color="#77623D"/>
</radialGradient>
<radialGradient id="paint15_radial_62_9617" cx="0" cy="0" r="1" gradientUnits="userSpaceOnUse" gradientTransform="translate(151.334 426.407) rotate(136) scale(19.5659 19.5927)">
<stop stop-color="#FFCF7C"/>
<stop offset="0.44" stop-color="#DBAC5B"/>
<stop offset="0.795" stop-color="#B6893A"/>
<stop offset="1" stop-color="#77623D"/>
</radialGradient>
<radialGradient id="paint16_radial_62_9617" cx="0" cy="0" r="1" gradientUnits="userSpaceOnUse" gradientTransform="translate(185.56 436.408) rotate(136) scale(19.5659 20.2247)">
<stop stop-color="#FFCF7C"/>
<stop offset="0.44" stop-color="#DBAC5B"/>
<stop offset="0.795" stop-color="#B6893A"/>
<stop offset="1" stop-color="#77623D"/>
</radialGradient>
<radialGradient id="paint17_radial_62_9617" cx="0" cy="0" r="1" gradientUnits="userSpaceOnUse" gradientTransform="translate(220.798 439.28) rotate(136) scale(20.1971 20.2247)">
<stop stop-color="#FFCF7C"/>
<stop offset="0.44" stop-color="#DBAC5B"/>
<stop offset="0.795" stop-color="#B6893A"/>
<stop offset="1" stop-color="#77623D"/>
</radialGradient>
<radialGradient id="paint18_radial_62_9617" cx="0" cy="0" r="1" gradientUnits="userSpaceOnUse" gradientTransform="translate(256.171 434.115) rotate(136) scale(20.1971 19.5927)">
<stop stop-color="#FFCF7C"/>
<stop offset="0.44" stop-color="#DBAC5B"/>
<stop offset="0.795" stop-color="#B6893A"/>
<stop offset="1" stop-color="#77623D"/>
</radialGradient>
<radialGradient id="paint19_radial_62_9617" cx="0" cy="0" r="1" gradientUnits="userSpaceOnUse" gradientTransform="translate(289.424 422.212) rotate(136) scale(19.5659 20.2247)">
<stop stop-color="#FFCF7C"/>
<stop offset="0.44" stop-color="#DBAC5B"/>
<stop offset="0.795" stop-color="#B6893A"/>
<stop offset="1" stop-color="#77623D"/>
</radialGradient>
<radialGradient id="paint20_radial_62_9617" cx="0" cy="0" r="1" gradientUnits="userSpaceOnUse" gradientTransform="translate(319.664 403.553) rotate(136) scale(20.1971 20.2247)">
<stop stop-color="#FFCF7C"/>
<stop offset="0.44" stop-color="#DBAC5B"/>
<stop offset="0.795" stop-color="#B6893A"/>
<stop offset="1" stop-color="#77623D"/>
</radialGradient>
<radialGradient id="paint21_radial_62_9617" cx="0" cy="0" r="1" gradientUnits="userSpaceOnUse" gradientTransform="translate(345.089 379) rotate(136) scale(20.1971 20.2247)">
<stop stop-color="#FFCF7C"/>
<stop offset="0.44" stop-color="#DBAC5B"/>
<stop offset="0.795" stop-color="#B6893A"/>
<stop offset="1" stop-color="#77623D"/>
</radialGradient>
<radialGradient id="paint22_radial_62_9617" cx="0" cy="0" r="1" gradientUnits="userSpaceOnUse" gradientTransform="translate(365.245 348.992) rotate(136) scale(20.1971 20.2247)">
<stop stop-color="#FFCF7C"/>
<stop offset="0.44" stop-color="#DBAC5B"/>
<stop offset="0.795" stop-color="#B6893A"/>
<stop offset="1" stop-color="#77623D"/>
</radialGradient>
<radialGradient id="paint23_radial_62_9617" cx="0" cy="0" r="1" gradientUnits="userSpaceOnUse" gradientTransform="translate(378.741 316.63) rotate(136) scale(19.5659 20.2247)">
<stop stop-color="#FFCF7C"/>
<stop offset="0.44" stop-color="#DBAC5B"/>
<stop offset="0.795" stop-color="#B6893A"/>
<stop offset="1" stop-color="#77623D"/>
</radialGradient>
<radialGradient id="paint24_radial_62_9617" cx="0" cy="0" r="1" gradientUnits="userSpaceOnUse" gradientTransform="translate(384.683 281.897) rotate(136) scale(20.1971 19.5927)">
<stop stop-color="#FFCF7C"/>
<stop offset="0.44" stop-color="#DBAC5B"/>
<stop offset="0.795" stop-color="#B6893A"/>
<stop offset="1" stop-color="#77623D"/>
</radialGradient>
<radialGradient id="paint25_radial_62_9617" cx="0" cy="0" r="1" gradientUnits="userSpaceOnUse" gradientTransform="translate(383.936 246.596) rotate(136) scale(20.1971 20.2247)">
<stop stop-color="#FFCF7C"/>
<stop offset="0.44" stop-color="#DBAC5B"/>
<stop offset="0.795" stop-color="#B6893A"/>
<stop offset="1" stop-color="#77623D"/>
</radialGradient>
<radialGradient id="paint26_radial_62_9617" cx="0" cy="0" r="1" gradientUnits="userSpaceOnUse" gradientTransform="translate(375.589 211.604) rotate(136) scale(19.5659 19.5927)">
<stop stop-color="#FFCF7C"/>
<stop offset="0.44" stop-color="#DBAC5B"/>
<stop offset="0.795" stop-color="#B6893A"/>
<stop offset="1" stop-color="#77623D"/>
</radialGradient>
<radialGradient id="paint27_radial_62_9617" cx="0" cy="0" r="1" gradientUnits="userSpaceOnUse" gradientTransform="translate(360.038 180.055) rotate(136) scale(20.1971 20.2247)">
<stop stop-color="#FFCF7C"/>
<stop offset="0.44" stop-color="#DBAC5B"/>
<stop offset="0.795" stop-color="#B6893A"/>
<stop offset="1" stop-color="#77623D"/>
</radialGradient>
<radialGradient id="paint28_radial_62_9617" cx="0" cy="0" r="1" gradientUnits="userSpaceOnUse" gradientTransform="translate(338.176 151.964) rotate(136) scale(20.1971 20.2247)">
<stop stop-color="#FFCF7C"/>
<stop offset="0.44" stop-color="#DBAC5B"/>
<stop offset="0.795" stop-color="#B6893A"/>
<stop offset="1" stop-color="#77623D"/>
</radialGradient>
<radialGradient id="paint29_radial_62_9617" cx="0" cy="0" r="1" gradientUnits="userSpaceOnUse" gradientTransform="translate(310.866 129.135) rotate(136) scale(20.1971 20.2247)">
<stop stop-color="#FFCF7C"/>
<stop offset="0.44" stop-color="#DBAC5B"/>
<stop offset="0.795" stop-color="#B6893A"/>
<stop offset="1" stop-color="#77623D"/>
</radialGradient>
</defs>
</svg>
